<mxfile host="app.diagrams.net" agent="Mozilla/5.0 (Macintosh; Intel Mac OS X 10_15_7) AppleWebKit/605.1.15 (KHTML, like Gecko) Version/17.4.1 Safari/605.1.15" version="24.7.16">
  <diagram name="Page-1" id="dCMBrZHZ_UhN5NfpCyCJ">
    <mxGraphModel dx="3835" dy="1818" grid="1" gridSize="10" guides="1" tooltips="1" connect="1" arrows="1" fold="1" page="1" pageScale="1" pageWidth="827" pageHeight="1169" math="0" shadow="0">
      <root>
        <mxCell id="0" />
        <mxCell id="1" parent="0" />
        <mxCell id="mzHUonBrrAP12Gn4H00u-24" value="" style="rounded=0;whiteSpace=wrap;html=1;fillColor=#d5e8d4;strokeColor=none;opacity=50;" vertex="1" parent="1">
          <mxGeometry x="-200" y="160" width="600" height="1580" as="geometry" />
        </mxCell>
        <mxCell id="mzHUonBrrAP12Gn4H00u-29" value="" style="rounded=0;whiteSpace=wrap;html=1;fillColor=#ffe6cc;strokeColor=#d79b00;" vertex="1" parent="1">
          <mxGeometry x="-200" y="1300" width="200" height="440" as="geometry" />
        </mxCell>
        <mxCell id="mzHUonBrrAP12Gn4H00u-28" value="" style="rounded=0;whiteSpace=wrap;html=1;fillColor=#f8cecc;strokeColor=#b85450;opacity=70;" vertex="1" parent="1">
          <mxGeometry x="-200" y="620" width="180" height="100" as="geometry" />
        </mxCell>
        <mxCell id="mzHUonBrrAP12Gn4H00u-27" value="" style="rounded=0;whiteSpace=wrap;html=1;fillColor=#ffe6cc;strokeColor=#d79b00;" vertex="1" parent="1">
          <mxGeometry x="-200" y="720" width="200" height="340" as="geometry" />
        </mxCell>
        <mxCell id="mzHUonBrrAP12Gn4H00u-26" value="" style="rounded=0;whiteSpace=wrap;html=1;fillColor=#f8cecc;strokeColor=#b85450;opacity=50;" vertex="1" parent="1">
          <mxGeometry x="-200" y="1740" width="600" height="598" as="geometry" />
        </mxCell>
        <mxCell id="mzHUonBrrAP12Gn4H00u-25" value="" style="rounded=0;whiteSpace=wrap;html=1;fillColor=#d5e8d4;strokeColor=none;opacity=50;" vertex="1" parent="1">
          <mxGeometry x="-200" y="40" width="360" height="120" as="geometry" />
        </mxCell>
        <mxCell id="vpeIHx57n76zGfDnY5xr-115" value="" style="shape=image;html=1;verticalAlign=top;verticalLabelPosition=bottom;labelBackgroundColor=#ffffff;imageAspect=0;aspect=fixed;image=https://cdn2.iconfinder.com/data/icons/boxicons-regular-vol-1/24/bx-circle-quarter-128.png;opacity=30;" vertex="1" parent="1">
          <mxGeometry x="117" y="992" width="90" height="90" as="geometry" />
        </mxCell>
        <mxCell id="vpeIHx57n76zGfDnY5xr-94" value="" style="shape=image;html=1;verticalAlign=top;verticalLabelPosition=bottom;labelBackgroundColor=#ffffff;imageAspect=0;aspect=fixed;image=https://cdn2.iconfinder.com/data/icons/boxicons-regular-vol-1/24/bx-circle-quarter-128.png;opacity=30;rotation=-90;" vertex="1" parent="1">
          <mxGeometry x="-46" y="1513" width="90" height="90" as="geometry" />
        </mxCell>
        <mxCell id="vpeIHx57n76zGfDnY5xr-93" value="" style="shape=image;html=1;verticalAlign=top;verticalLabelPosition=bottom;labelBackgroundColor=#ffffff;imageAspect=0;aspect=fixed;image=https://cdn2.iconfinder.com/data/icons/boxicons-regular-vol-1/24/bx-circle-quarter-128.png;opacity=30;rotation=-90;" vertex="1" parent="1">
          <mxGeometry x="-46.5" y="1352" width="90" height="90" as="geometry" />
        </mxCell>
        <mxCell id="vpeIHx57n76zGfDnY5xr-77" value="" style="shape=image;html=1;verticalAlign=top;verticalLabelPosition=bottom;labelBackgroundColor=#ffffff;imageAspect=0;aspect=fixed;image=https://cdn2.iconfinder.com/data/icons/boxicons-regular-vol-1/24/bx-circle-quarter-128.png;opacity=30;rotation=-90;" vertex="1" parent="1">
          <mxGeometry x="-88" y="673" width="90" height="90" as="geometry" />
        </mxCell>
        <mxCell id="vpeIHx57n76zGfDnY5xr-78" value="" style="shape=image;html=1;verticalAlign=top;verticalLabelPosition=bottom;labelBackgroundColor=#ffffff;imageAspect=0;aspect=fixed;image=https://cdn2.iconfinder.com/data/icons/boxicons-regular-vol-1/24/bx-circle-quarter-128.png;opacity=30;rotation=-90;" vertex="1" parent="1">
          <mxGeometry x="-48" y="793" width="90" height="90" as="geometry" />
        </mxCell>
        <mxCell id="vpeIHx57n76zGfDnY5xr-66" value="" style="shape=image;html=1;verticalAlign=top;verticalLabelPosition=bottom;labelBackgroundColor=#ffffff;imageAspect=0;aspect=fixed;image=https://cdn2.iconfinder.com/data/icons/boxicons-regular-vol-1/24/bx-circle-quarter-128.png;opacity=30;" vertex="1" parent="1">
          <mxGeometry x="35.5" y="592" width="90" height="90" as="geometry" />
        </mxCell>
        <mxCell id="vpeIHx57n76zGfDnY5xr-67" value="" style="shape=image;html=1;verticalAlign=top;verticalLabelPosition=bottom;labelBackgroundColor=#ffffff;imageAspect=0;aspect=fixed;image=https://cdn2.iconfinder.com/data/icons/boxicons-regular-vol-1/24/bx-circle-quarter-128.png;opacity=30;" vertex="1" parent="1">
          <mxGeometry x="35.5" y="190" width="90" height="90" as="geometry" />
        </mxCell>
        <mxCell id="vpeIHx57n76zGfDnY5xr-69" value="" style="shape=image;html=1;verticalAlign=top;verticalLabelPosition=bottom;labelBackgroundColor=#ffffff;imageAspect=0;aspect=fixed;image=https://cdn2.iconfinder.com/data/icons/boxicons-regular-vol-1/24/bx-circle-quarter-128.png;opacity=30;rotation=-90;" vertex="1" parent="1">
          <mxGeometry x="-47" y="492" width="90" height="90" as="geometry" />
        </mxCell>
        <mxCell id="vpeIHx57n76zGfDnY5xr-68" value="" style="shape=image;html=1;verticalAlign=top;verticalLabelPosition=bottom;labelBackgroundColor=#ffffff;imageAspect=0;aspect=fixed;image=https://cdn2.iconfinder.com/data/icons/boxicons-regular-vol-1/24/bx-circle-quarter-128.png;opacity=30;rotation=-90;" vertex="1" parent="1">
          <mxGeometry x="-46.5" y="334" width="90" height="90" as="geometry" />
        </mxCell>
        <mxCell id="vpeIHx57n76zGfDnY5xr-1" value="" style="shape=partialRectangle;whiteSpace=wrap;html=1;bottom=0;right=0;fillColor=none;" vertex="1" parent="1">
          <mxGeometry x="-200" y="40" width="210" height="60" as="geometry" />
        </mxCell>
        <mxCell id="vpeIHx57n76zGfDnY5xr-5" value="" style="endArrow=none;html=1;rounded=0;" edge="1" parent="1">
          <mxGeometry width="50" height="50" relative="1" as="geometry">
            <mxPoint x="10" y="40" as="sourcePoint" />
            <mxPoint x="160" y="40" as="targetPoint" />
          </mxGeometry>
        </mxCell>
        <mxCell id="vpeIHx57n76zGfDnY5xr-7" value="" style="endArrow=none;html=1;rounded=0;" edge="1" parent="1">
          <mxGeometry width="50" height="50" relative="1" as="geometry">
            <mxPoint x="159" y="40" as="sourcePoint" />
            <mxPoint x="159" y="90" as="targetPoint" />
          </mxGeometry>
        </mxCell>
        <mxCell id="vpeIHx57n76zGfDnY5xr-9" value="" style="line;strokeWidth=4;html=1;perimeter=backbonePerimeter;points=[];outlineConnect=0;rotation=90;strokeColor=#99004D;fillColor=#f5f5f5;fontColor=#333333;" vertex="1" parent="1">
          <mxGeometry x="122" y="117" width="76" height="10" as="geometry" />
        </mxCell>
        <mxCell id="vpeIHx57n76zGfDnY5xr-11" value="" style="endArrow=none;html=1;rounded=0;" edge="1" parent="1">
          <mxGeometry width="50" height="50" relative="1" as="geometry">
            <mxPoint x="79" y="160" as="sourcePoint" />
            <mxPoint x="400" y="161" as="targetPoint" />
          </mxGeometry>
        </mxCell>
        <mxCell id="vpeIHx57n76zGfDnY5xr-12" value="" style="endArrow=none;html=1;rounded=0;" edge="1" parent="1">
          <mxGeometry width="50" height="50" relative="1" as="geometry">
            <mxPoint x="400" y="160" as="sourcePoint" />
            <mxPoint x="400" y="2338" as="targetPoint" />
          </mxGeometry>
        </mxCell>
        <mxCell id="vpeIHx57n76zGfDnY5xr-13" value="" style="endArrow=none;html=1;rounded=0;exitX=0.951;exitY=0.033;exitDx=0;exitDy=0;exitPerimeter=0;" edge="1" parent="1" source="mzHUonBrrAP12Gn4H00u-12">
          <mxGeometry width="50" height="50" relative="1" as="geometry">
            <mxPoint x="0.7100000000000364" y="180.83999999999992" as="sourcePoint" />
            <mxPoint x="1" y="620" as="targetPoint" />
          </mxGeometry>
        </mxCell>
        <mxCell id="vpeIHx57n76zGfDnY5xr-14" value="" style="endArrow=none;html=1;rounded=0;" edge="1" parent="1">
          <mxGeometry width="50" height="50" relative="1" as="geometry">
            <mxPoint x="79.17" y="160" as="sourcePoint" />
            <mxPoint x="79" y="480" as="targetPoint" />
          </mxGeometry>
        </mxCell>
        <mxCell id="vpeIHx57n76zGfDnY5xr-18" value="" style="line;strokeWidth=4;html=1;perimeter=backbonePerimeter;points=[];outlineConnect=0;rotation=90;strokeColor=#000000;" vertex="1" parent="1">
          <mxGeometry x="59.5" y="214" width="40" height="10" as="geometry" />
        </mxCell>
        <mxCell id="vpeIHx57n76zGfDnY5xr-21" value="" style="line;strokeWidth=4;html=1;perimeter=backbonePerimeter;points=[];outlineConnect=0;rotation=90;strokeColor=#000000;fillColor=#000000;" vertex="1" parent="1">
          <mxGeometry x="59" y="615" width="40" height="10" as="geometry" />
        </mxCell>
        <mxCell id="vpeIHx57n76zGfDnY5xr-22" value="" style="endArrow=none;html=1;rounded=0;exitX=0;exitY=1;exitDx=0;exitDy=0;" edge="1" parent="1" source="vpeIHx57n76zGfDnY5xr-1">
          <mxGeometry width="50" height="50" relative="1" as="geometry">
            <mxPoint x="-200" y="240" as="sourcePoint" />
            <mxPoint x="-200" y="2339" as="targetPoint" />
          </mxGeometry>
        </mxCell>
        <mxCell id="vpeIHx57n76zGfDnY5xr-23" value="" style="endArrow=none;html=1;rounded=0;" edge="1" parent="1">
          <mxGeometry width="50" height="50" relative="1" as="geometry">
            <mxPoint x="-200" y="419" as="sourcePoint" />
            <mxPoint y="419" as="targetPoint" />
          </mxGeometry>
        </mxCell>
        <mxCell id="vpeIHx57n76zGfDnY5xr-24" value="" style="line;strokeWidth=4;html=1;perimeter=backbonePerimeter;points=[];outlineConnect=0;rotation=90;strokeColor=default;" vertex="1" parent="1">
          <mxGeometry x="-20" y="356" width="40" height="10" as="geometry" />
        </mxCell>
        <mxCell id="vpeIHx57n76zGfDnY5xr-28" value="" style="line;strokeWidth=4;html=1;perimeter=backbonePerimeter;points=[];outlineConnect=0;rotation=90;strokeColor=#000000;" vertex="1" parent="1">
          <mxGeometry x="-19" y="515" width="40" height="10" as="geometry" />
        </mxCell>
        <mxCell id="vpeIHx57n76zGfDnY5xr-30" value="" style="endArrow=none;html=1;rounded=0;" edge="1" parent="1">
          <mxGeometry width="50" height="50" relative="1" as="geometry">
            <mxPoint x="-200" y="619" as="sourcePoint" />
            <mxPoint y="619" as="targetPoint" />
          </mxGeometry>
        </mxCell>
        <mxCell id="vpeIHx57n76zGfDnY5xr-31" value="" style="endArrow=none;html=1;rounded=0;" edge="1" parent="1">
          <mxGeometry width="50" height="50" relative="1" as="geometry">
            <mxPoint x="80" y="760" as="sourcePoint" />
            <mxPoint x="400" y="760" as="targetPoint" />
          </mxGeometry>
        </mxCell>
        <mxCell id="vpeIHx57n76zGfDnY5xr-32" value="" style="endArrow=none;html=1;rounded=0;" edge="1" parent="1">
          <mxGeometry width="50" height="50" relative="1" as="geometry">
            <mxPoint x="79" y="681" as="sourcePoint" />
            <mxPoint x="280" y="681" as="targetPoint" />
          </mxGeometry>
        </mxCell>
        <mxCell id="vpeIHx57n76zGfDnY5xr-33" value="" style="endArrow=none;html=1;rounded=0;" edge="1" parent="1">
          <mxGeometry width="50" height="50" relative="1" as="geometry">
            <mxPoint x="79" y="620" as="sourcePoint" />
            <mxPoint x="80" y="760" as="targetPoint" />
          </mxGeometry>
        </mxCell>
        <mxCell id="vpeIHx57n76zGfDnY5xr-34" value="" style="endArrow=none;html=1;rounded=0;" edge="1" parent="1" source="vpeIHx57n76zGfDnY5xr-113">
          <mxGeometry width="50" height="50" relative="1" as="geometry">
            <mxPoint x="159" y="760" as="sourcePoint" />
            <mxPoint x="159" y="1059" as="targetPoint" />
          </mxGeometry>
        </mxCell>
        <mxCell id="vpeIHx57n76zGfDnY5xr-35" value="" style="endArrow=none;html=1;rounded=0;" edge="1" parent="1">
          <mxGeometry width="50" height="50" relative="1" as="geometry">
            <mxPoint x="160" y="1059" as="sourcePoint" />
            <mxPoint x="400" y="1059" as="targetPoint" />
          </mxGeometry>
        </mxCell>
        <mxCell id="vpeIHx57n76zGfDnY5xr-37" value="" style="endArrow=none;html=1;rounded=0;" edge="1" parent="1">
          <mxGeometry width="50" height="50" relative="1" as="geometry">
            <mxPoint x="-200" y="1059" as="sourcePoint" />
            <mxPoint y="1059" as="targetPoint" />
          </mxGeometry>
        </mxCell>
        <mxCell id="vpeIHx57n76zGfDnY5xr-39" value="" style="line;strokeWidth=4;html=1;perimeter=backbonePerimeter;points=[];outlineConnect=0;rotation=90;strokeColor=#660033;" vertex="1" parent="1">
          <mxGeometry x="363" y="1173" width="76" height="10" as="geometry" />
        </mxCell>
        <mxCell id="vpeIHx57n76zGfDnY5xr-40" value="" style="endArrow=none;html=1;rounded=0;" edge="1" parent="1">
          <mxGeometry width="50" height="50" relative="1" as="geometry">
            <mxPoint x="120" y="1299" as="sourcePoint" />
            <mxPoint x="400" y="1299" as="targetPoint" />
          </mxGeometry>
        </mxCell>
        <mxCell id="vpeIHx57n76zGfDnY5xr-41" value="" style="endArrow=none;html=1;rounded=0;" edge="1" parent="1">
          <mxGeometry width="50" height="50" relative="1" as="geometry">
            <mxPoint x="-200" y="1299" as="sourcePoint" />
            <mxPoint y="1299" as="targetPoint" />
          </mxGeometry>
        </mxCell>
        <mxCell id="vpeIHx57n76zGfDnY5xr-42" value="" style="line;strokeWidth=4;html=1;perimeter=backbonePerimeter;points=[];outlineConnect=0;rotation=90;strokeColor=#99004D;" vertex="1" parent="1">
          <mxGeometry x="-237" y="1173" width="76" height="10" as="geometry" />
        </mxCell>
        <mxCell id="vpeIHx57n76zGfDnY5xr-43" value="" style="endArrow=none;html=1;rounded=0;" edge="1" parent="1">
          <mxGeometry width="50" height="50" relative="1" as="geometry">
            <mxPoint y="1299" as="sourcePoint" />
            <mxPoint y="2339" as="targetPoint" />
          </mxGeometry>
        </mxCell>
        <mxCell id="vpeIHx57n76zGfDnY5xr-44" value="" style="endArrow=none;html=1;rounded=0;" edge="1" parent="1">
          <mxGeometry width="50" height="50" relative="1" as="geometry">
            <mxPoint x="-200" y="1480" as="sourcePoint" />
            <mxPoint y="1480" as="targetPoint" />
          </mxGeometry>
        </mxCell>
        <mxCell id="vpeIHx57n76zGfDnY5xr-45" value="" style="endArrow=none;html=1;rounded=0;" edge="1" parent="1">
          <mxGeometry width="50" height="50" relative="1" as="geometry">
            <mxPoint x="-200" y="1739" as="sourcePoint" />
            <mxPoint x="400" y="1739" as="targetPoint" />
          </mxGeometry>
        </mxCell>
        <mxCell id="vpeIHx57n76zGfDnY5xr-46" value="" style="line;strokeWidth=4;html=1;perimeter=backbonePerimeter;points=[];outlineConnect=0;rotation=0;strokeColor=#FF9999;fillColor=#f5f5f5;fontColor=#333333;" vertex="1" parent="1">
          <mxGeometry x="42" y="1734" width="76" height="10" as="geometry" />
        </mxCell>
        <mxCell id="vpeIHx57n76zGfDnY5xr-47" value="" style="endArrow=none;html=1;rounded=0;" edge="1" parent="1">
          <mxGeometry width="50" height="50" relative="1" as="geometry">
            <mxPoint x="-200" y="2338" as="sourcePoint" />
            <mxPoint x="400" y="2339" as="targetPoint" />
          </mxGeometry>
        </mxCell>
        <mxCell id="vpeIHx57n76zGfDnY5xr-48" value="" style="endArrow=none;html=1;rounded=0;" edge="1" parent="1">
          <mxGeometry width="50" height="50" relative="1" as="geometry">
            <mxPoint x="200" y="1859" as="sourcePoint" />
            <mxPoint x="200" y="2219" as="targetPoint" />
          </mxGeometry>
        </mxCell>
        <mxCell id="vpeIHx57n76zGfDnY5xr-49" value="" style="endArrow=none;html=1;rounded=0;" edge="1" parent="1">
          <mxGeometry width="50" height="50" relative="1" as="geometry">
            <mxPoint x="198" y="2219" as="sourcePoint" />
            <mxPoint x="396" y="2219" as="targetPoint" />
          </mxGeometry>
        </mxCell>
        <mxCell id="vpeIHx57n76zGfDnY5xr-50" value="" style="endArrow=none;html=1;rounded=0;" edge="1" parent="1">
          <mxGeometry width="50" height="50" relative="1" as="geometry">
            <mxPoint x="-200" y="1859" as="sourcePoint" />
            <mxPoint y="1859" as="targetPoint" />
          </mxGeometry>
        </mxCell>
        <mxCell id="vpeIHx57n76zGfDnY5xr-51" value="" style="endArrow=none;html=1;rounded=0;" edge="1" parent="1">
          <mxGeometry width="50" height="50" relative="1" as="geometry">
            <mxPoint x="-200" y="1979" as="sourcePoint" />
            <mxPoint y="1979" as="targetPoint" />
          </mxGeometry>
        </mxCell>
        <mxCell id="vpeIHx57n76zGfDnY5xr-52" value="" style="endArrow=none;html=1;rounded=0;" edge="1" parent="1">
          <mxGeometry width="50" height="50" relative="1" as="geometry">
            <mxPoint x="-200" y="2099" as="sourcePoint" />
            <mxPoint y="2099" as="targetPoint" />
          </mxGeometry>
        </mxCell>
        <mxCell id="vpeIHx57n76zGfDnY5xr-53" value="" style="endArrow=none;html=1;rounded=0;" edge="1" parent="1">
          <mxGeometry width="50" height="50" relative="1" as="geometry">
            <mxPoint x="200" y="1859" as="sourcePoint" />
            <mxPoint x="398" y="1859" as="targetPoint" />
          </mxGeometry>
        </mxCell>
        <mxCell id="vpeIHx57n76zGfDnY5xr-54" value="" style="endArrow=none;html=1;rounded=0;" edge="1" parent="1">
          <mxGeometry width="50" height="50" relative="1" as="geometry">
            <mxPoint x="200" y="2099" as="sourcePoint" />
            <mxPoint x="398" y="2099" as="targetPoint" />
          </mxGeometry>
        </mxCell>
        <mxCell id="vpeIHx57n76zGfDnY5xr-55" value="" style="endArrow=none;html=1;rounded=0;" edge="1" parent="1">
          <mxGeometry width="50" height="50" relative="1" as="geometry">
            <mxPoint x="200" y="1979" as="sourcePoint" />
            <mxPoint x="398" y="1979" as="targetPoint" />
          </mxGeometry>
        </mxCell>
        <mxCell id="vpeIHx57n76zGfDnY5xr-56" value="" style="endArrow=none;html=1;rounded=0;" edge="1" parent="1">
          <mxGeometry width="50" height="50" relative="1" as="geometry">
            <mxPoint x="161" y="1505" as="sourcePoint" />
            <mxPoint x="161" y="1666" as="targetPoint" />
          </mxGeometry>
        </mxCell>
        <mxCell id="vpeIHx57n76zGfDnY5xr-57" value="" style="endArrow=none;html=1;rounded=0;" edge="1" parent="1">
          <mxGeometry width="50" height="50" relative="1" as="geometry">
            <mxPoint x="308" y="1586" as="sourcePoint" />
            <mxPoint x="160" y="1586" as="targetPoint" />
          </mxGeometry>
        </mxCell>
        <mxCell id="vpeIHx57n76zGfDnY5xr-61" value="" style="endArrow=none;html=1;rounded=0;" edge="1" parent="1">
          <mxGeometry width="50" height="50" relative="1" as="geometry">
            <mxPoint x="280" y="522" as="sourcePoint" />
            <mxPoint x="280" y="682" as="targetPoint" />
          </mxGeometry>
        </mxCell>
        <mxCell id="vpeIHx57n76zGfDnY5xr-62" value="" style="endArrow=none;html=1;rounded=0;" edge="1" parent="1">
          <mxGeometry width="50" height="50" relative="1" as="geometry">
            <mxPoint x="79" y="360.58" as="sourcePoint" />
            <mxPoint x="400" y="360.58" as="targetPoint" />
          </mxGeometry>
        </mxCell>
        <mxCell id="vpeIHx57n76zGfDnY5xr-63" value="" style="endArrow=none;html=1;rounded=0;" edge="1" parent="1">
          <mxGeometry width="50" height="50" relative="1" as="geometry">
            <mxPoint x="199" y="680" as="sourcePoint" />
            <mxPoint x="198.5" y="760" as="targetPoint" />
          </mxGeometry>
        </mxCell>
        <mxCell id="vpeIHx57n76zGfDnY5xr-64" value="" style="line;strokeWidth=4;html=1;perimeter=backbonePerimeter;points=[];outlineConnect=0;rotation=90;strokeColor=#F7F7F7;" vertex="1" parent="1">
          <mxGeometry x="59.5" y="716" width="40" height="10" as="geometry" />
        </mxCell>
        <mxCell id="vpeIHx57n76zGfDnY5xr-65" value="" style="line;strokeWidth=4;html=1;perimeter=backbonePerimeter;points=[];outlineConnect=0;rotation=90;strokeColor=#F7F7F7;" vertex="1" parent="1">
          <mxGeometry x="139.5" y="716" width="40" height="10" as="geometry" />
        </mxCell>
        <mxCell id="vpeIHx57n76zGfDnY5xr-70" value="" style="shape=image;html=1;verticalAlign=top;verticalLabelPosition=bottom;labelBackgroundColor=#ffffff;imageAspect=0;aspect=fixed;image=https://cdn2.iconfinder.com/data/icons/boxicons-regular-vol-1/24/bx-circle-quarter-128.png;opacity=30;" vertex="1" parent="1">
          <mxGeometry x="38" y="693" width="90" height="90" as="geometry" />
        </mxCell>
        <mxCell id="vpeIHx57n76zGfDnY5xr-71" value="" style="shape=image;html=1;verticalAlign=top;verticalLabelPosition=bottom;labelBackgroundColor=#ffffff;imageAspect=0;aspect=fixed;image=https://cdn2.iconfinder.com/data/icons/boxicons-regular-vol-1/24/bx-circle-quarter-128.png;opacity=30;" vertex="1" parent="1">
          <mxGeometry x="157" y="693" width="90" height="90" as="geometry" />
        </mxCell>
        <mxCell id="vpeIHx57n76zGfDnY5xr-72" value="" style="line;strokeWidth=4;html=1;perimeter=backbonePerimeter;points=[];outlineConnect=0;rotation=90;strokeColor=#000000;fillColor=#000000;" vertex="1" parent="1">
          <mxGeometry x="60" y="716" width="40" height="10" as="geometry" />
        </mxCell>
        <mxCell id="vpeIHx57n76zGfDnY5xr-73" value="" style="line;strokeWidth=4;html=1;perimeter=backbonePerimeter;points=[];outlineConnect=0;rotation=90;strokeColor=#000000;fillColor=#000000;" vertex="1" parent="1">
          <mxGeometry x="180" y="716" width="40" height="10" as="geometry" />
        </mxCell>
        <mxCell id="vpeIHx57n76zGfDnY5xr-74" value="" style="endArrow=none;html=1;rounded=0;" edge="1" parent="1">
          <mxGeometry width="50" height="50" relative="1" as="geometry">
            <mxPoint x="-200" y="720.52" as="sourcePoint" />
            <mxPoint y="721" as="targetPoint" />
          </mxGeometry>
        </mxCell>
        <mxCell id="vpeIHx57n76zGfDnY5xr-75" value="" style="line;strokeWidth=4;html=1;perimeter=backbonePerimeter;points=[];outlineConnect=0;rotation=0;strokeColor=#FF3333;fillColor=#000000;" vertex="1" parent="1">
          <mxGeometry x="-80" y="716" width="40" height="10" as="geometry" />
        </mxCell>
        <mxCell id="vpeIHx57n76zGfDnY5xr-79" value="" style="line;strokeWidth=4;html=1;perimeter=backbonePerimeter;points=[];outlineConnect=0;rotation=90;strokeColor=#000000;fillColor=#000000;" vertex="1" parent="1">
          <mxGeometry x="-19.5" y="816" width="40" height="10" as="geometry" />
        </mxCell>
        <mxCell id="vpeIHx57n76zGfDnY5xr-80" value="" style="line;strokeWidth=4;html=1;perimeter=backbonePerimeter;points=[];outlineConnect=0;rotation=90;strokeColor=#000000;fillColor=#000000;" vertex="1" parent="1">
          <mxGeometry x="-19" y="1377" width="40" height="10" as="geometry" />
        </mxCell>
        <mxCell id="vpeIHx57n76zGfDnY5xr-81" value="" style="line;strokeWidth=4;html=1;perimeter=backbonePerimeter;points=[];outlineConnect=0;rotation=90;strokeColor=#000000;fillColor=#000000;" vertex="1" parent="1">
          <mxGeometry x="-18.5" y="1537" width="40" height="10" as="geometry" />
        </mxCell>
        <mxCell id="vpeIHx57n76zGfDnY5xr-82" value="" style="line;strokeWidth=4;html=1;perimeter=backbonePerimeter;points=[];outlineConnect=0;rotation=90;strokeColor=#99004D;" vertex="1" parent="1">
          <mxGeometry x="521" y="114" width="76" height="10" as="geometry" />
        </mxCell>
        <mxCell id="vpeIHx57n76zGfDnY5xr-83" value="" style="line;strokeWidth=4;html=1;perimeter=backbonePerimeter;points=[];outlineConnect=0;rotation=90;strokeColor=#000000;" vertex="1" parent="1">
          <mxGeometry x="539" y="215" width="40" height="10" as="geometry" />
        </mxCell>
        <mxCell id="vpeIHx57n76zGfDnY5xr-84" value="" style="line;strokeWidth=4;html=1;perimeter=backbonePerimeter;points=[];outlineConnect=0;rotation=-90;strokeColor=#FF3333;fillColor=#000000;" vertex="1" parent="1">
          <mxGeometry x="539" y="296" width="40" height="10" as="geometry" />
        </mxCell>
        <mxCell id="vpeIHx57n76zGfDnY5xr-85" value="" style="line;strokeWidth=4;html=1;perimeter=backbonePerimeter;points=[];outlineConnect=0;rotation=90;strokeColor=#FF9999;fillColor=#f5f5f5;fontColor=#333333;" vertex="1" parent="1">
          <mxGeometry x="520" y="393" width="76" height="10" as="geometry" />
        </mxCell>
        <mxCell id="vpeIHx57n76zGfDnY5xr-86" value="" style="line;strokeWidth=4;html=1;perimeter=backbonePerimeter;points=[];outlineConnect=0;rotation=90;strokeColor=#000000;fillColor=#000000;" vertex="1" parent="1">
          <mxGeometry x="-19" y="1793" width="40" height="17" as="geometry" />
        </mxCell>
        <mxCell id="vpeIHx57n76zGfDnY5xr-87" value="" style="line;strokeWidth=4;html=1;perimeter=backbonePerimeter;points=[];outlineConnect=0;rotation=90;strokeColor=#000000;fillColor=#000000;" vertex="1" parent="1">
          <mxGeometry x="-19" y="1912" width="40" height="17" as="geometry" />
        </mxCell>
        <mxCell id="vpeIHx57n76zGfDnY5xr-88" value="" style="line;strokeWidth=4;html=1;perimeter=backbonePerimeter;points=[];outlineConnect=0;rotation=90;strokeColor=#000000;fillColor=#000000;" vertex="1" parent="1">
          <mxGeometry x="-18.5" y="2031" width="40" height="17" as="geometry" />
        </mxCell>
        <mxCell id="vpeIHx57n76zGfDnY5xr-89" value="" style="line;strokeWidth=4;html=1;perimeter=backbonePerimeter;points=[];outlineConnect=0;rotation=90;strokeColor=#000000;fillColor=#000000;" vertex="1" parent="1">
          <mxGeometry x="-19.5" y="2171" width="40" height="17" as="geometry" />
        </mxCell>
        <mxCell id="vpeIHx57n76zGfDnY5xr-90" value="" style="line;strokeWidth=4;html=1;perimeter=backbonePerimeter;points=[];outlineConnect=0;rotation=90;strokeColor=#000000;fillColor=#000000;" vertex="1" parent="1">
          <mxGeometry x="181" y="1912" width="40" height="17" as="geometry" />
        </mxCell>
        <mxCell id="vpeIHx57n76zGfDnY5xr-91" value="" style="line;strokeWidth=4;html=1;perimeter=backbonePerimeter;points=[];outlineConnect=0;rotation=90;strokeColor=#000000;fillColor=#000000;" vertex="1" parent="1">
          <mxGeometry x="182" y="2031" width="40" height="17" as="geometry" />
        </mxCell>
        <mxCell id="vpeIHx57n76zGfDnY5xr-92" value="" style="line;strokeWidth=4;html=1;perimeter=backbonePerimeter;points=[];outlineConnect=0;rotation=90;strokeColor=#000000;fillColor=#000000;" vertex="1" parent="1">
          <mxGeometry x="182" y="2150" width="40" height="17" as="geometry" />
        </mxCell>
        <mxCell id="vpeIHx57n76zGfDnY5xr-95" value="" style="shape=image;html=1;verticalAlign=top;verticalLabelPosition=bottom;labelBackgroundColor=#ffffff;imageAspect=0;aspect=fixed;image=https://cdn2.iconfinder.com/data/icons/boxicons-regular-vol-1/24/bx-circle-quarter-128.png;opacity=30;rotation=-90;" vertex="1" parent="1">
          <mxGeometry x="-48" y="1773" width="90" height="90" as="geometry" />
        </mxCell>
        <mxCell id="vpeIHx57n76zGfDnY5xr-97" value="" style="endArrow=none;html=1;rounded=0;" edge="1" parent="1">
          <mxGeometry width="50" height="50" relative="1" as="geometry">
            <mxPoint x="80" y="519.5799999999999" as="sourcePoint" />
            <mxPoint x="400" y="520" as="targetPoint" />
          </mxGeometry>
        </mxCell>
        <mxCell id="vpeIHx57n76zGfDnY5xr-98" value="" style="endArrow=none;html=1;rounded=0;" edge="1" parent="1">
          <mxGeometry width="50" height="50" relative="1" as="geometry">
            <mxPoint x="80" y="479.99999999999994" as="sourcePoint" />
            <mxPoint x="400" y="480.42" as="targetPoint" />
          </mxGeometry>
        </mxCell>
        <mxCell id="vpeIHx57n76zGfDnY5xr-101" value="" style="endArrow=none;html=1;rounded=0;" edge="1" parent="1">
          <mxGeometry width="50" height="50" relative="1" as="geometry">
            <mxPoint x="-21" y="620" as="sourcePoint" />
            <mxPoint x="-20.5" y="720" as="targetPoint" />
          </mxGeometry>
        </mxCell>
        <mxCell id="vpeIHx57n76zGfDnY5xr-102" value="" style="endArrow=none;html=1;rounded=0;" edge="1" parent="1">
          <mxGeometry width="50" height="50" relative="1" as="geometry">
            <mxPoint y="720" as="sourcePoint" />
            <mxPoint y="1060" as="targetPoint" />
          </mxGeometry>
        </mxCell>
        <mxCell id="vpeIHx57n76zGfDnY5xr-103" value="" style="rounded=0;whiteSpace=wrap;html=1;" vertex="1" parent="1">
          <mxGeometry x="280" y="801" width="80" height="40" as="geometry" />
        </mxCell>
        <mxCell id="vpeIHx57n76zGfDnY5xr-104" value="" style="rounded=0;whiteSpace=wrap;html=1;" vertex="1" parent="1">
          <mxGeometry x="280" y="880" width="80" height="40" as="geometry" />
        </mxCell>
        <mxCell id="vpeIHx57n76zGfDnY5xr-105" value="" style="rounded=0;whiteSpace=wrap;html=1;" vertex="1" parent="1">
          <mxGeometry x="280" y="957" width="80" height="40" as="geometry" />
        </mxCell>
        <mxCell id="vpeIHx57n76zGfDnY5xr-107" value="" style="ellipse;whiteSpace=wrap;html=1;rotation=90;" vertex="1" parent="1">
          <mxGeometry x="198" y="828" width="72" height="50" as="geometry" />
        </mxCell>
        <mxCell id="vpeIHx57n76zGfDnY5xr-108" value="" style="shape=or;whiteSpace=wrap;html=1;" vertex="1" parent="1">
          <mxGeometry x="170" y="777" width="28" height="49" as="geometry" />
        </mxCell>
        <mxCell id="vpeIHx57n76zGfDnY5xr-109" value="" style="ellipse;whiteSpace=wrap;html=1;rotation=90;" vertex="1" parent="1">
          <mxGeometry x="198" y="917" width="72" height="50" as="geometry" />
        </mxCell>
        <mxCell id="vpeIHx57n76zGfDnY5xr-110" value="" style="points=[[0,0.5,0],[0.19,0.02,0],[0.59,0,0],[0.985,0.02,0],[1,0.5,0],[0.985,0.98,0],[0.59,1,0],[0.19,0.98,0]];verticalLabelPosition=bottom;sketch=0;html=1;verticalAlign=top;aspect=fixed;align=center;pointerEvents=1;shape=mxgraph.cisco19.camera;fillColor=#005073;strokeColor=none;" vertex="1" parent="1">
          <mxGeometry x="545.5" y="477" width="27" height="15" as="geometry" />
        </mxCell>
        <mxCell id="vpeIHx57n76zGfDnY5xr-111" value="" style="fontColor=#0066CC;verticalAlign=top;verticalLabelPosition=bottom;labelPosition=center;align=center;html=1;outlineConnect=0;fillColor=#CCCCCC;strokeColor=#6881B3;gradientColor=none;gradientDirection=north;strokeWidth=2;shape=mxgraph.networks.video_projector;rotation=90;" vertex="1" parent="1">
          <mxGeometry x="214" y="893" width="40" height="14" as="geometry" />
        </mxCell>
        <mxCell id="vpeIHx57n76zGfDnY5xr-112" value="Screen Name" style="strokeWidth=1;html=1;shadow=0;dashed=0;shape=mxgraph.ios.iScreenNameBar;fillColor2=#000000;fillColor3=#ffffff;buttonText=;fontColor=#ffffff;fontSize=10;whiteSpace=wrap;align=center;sketch=0;rotation=-90;" vertex="1" parent="1">
          <mxGeometry x="107.75" y="898.25" width="111.5" height="10" as="geometry" />
        </mxCell>
        <mxCell id="vpeIHx57n76zGfDnY5xr-114" value="" style="endArrow=none;html=1;rounded=0;" edge="1" parent="1" target="vpeIHx57n76zGfDnY5xr-113">
          <mxGeometry width="50" height="50" relative="1" as="geometry">
            <mxPoint x="159" y="760" as="sourcePoint" />
            <mxPoint x="159" y="1059" as="targetPoint" />
          </mxGeometry>
        </mxCell>
        <mxCell id="vpeIHx57n76zGfDnY5xr-113" value="" style="line;strokeWidth=4;html=1;perimeter=backbonePerimeter;points=[];outlineConnect=0;rotation=90;strokeColor=#000000;fillColor=#000000;" vertex="1" parent="1">
          <mxGeometry x="139.5" y="1014" width="40" height="10" as="geometry" />
        </mxCell>
        <mxCell id="vpeIHx57n76zGfDnY5xr-116" value="Screen Name" style="strokeWidth=1;html=1;shadow=0;dashed=0;shape=mxgraph.ios.iScreenNameBar;fillColor2=#000000;fillColor3=#ffffff;buttonText=;fontColor=#ffffff;fontSize=10;whiteSpace=wrap;align=center;sketch=0;rotation=-180;" vertex="1" parent="1">
          <mxGeometry x="225.25" y="1050" width="111.5" height="10" as="geometry" />
        </mxCell>
        <mxCell id="vpeIHx57n76zGfDnY5xr-117" value="Screen Name" style="strokeWidth=1;html=1;shadow=0;dashed=0;shape=mxgraph.ios.iScreenNameBar;fillColor2=#000000;fillColor3=#ffffff;buttonText=;fontColor=#ffffff;fontSize=10;whiteSpace=wrap;align=center;sketch=0;rotation=90;" vertex="1" parent="1">
          <mxGeometry x="336.75" y="897" width="111.5" height="10" as="geometry" />
        </mxCell>
        <mxCell id="mzHUonBrrAP12Gn4H00u-1" value="" style="shape=image;html=1;verticalAlign=top;verticalLabelPosition=bottom;labelBackgroundColor=#ffffff;imageAspect=0;aspect=fixed;image=https://cdn2.iconfinder.com/data/icons/boxicons-regular-vol-1/24/bx-circle-quarter-128.png;opacity=30;" vertex="1" parent="1">
          <mxGeometry x="518" y="193" width="90" height="90" as="geometry" />
        </mxCell>
        <mxCell id="mzHUonBrrAP12Gn4H00u-2" value="Screen Name" style="strokeWidth=1;html=1;shadow=0;dashed=0;shape=mxgraph.ios.iScreenNameBar;fillColor2=#000000;fillColor3=#ffffff;buttonText=;fontColor=#ffffff;fontSize=10;whiteSpace=wrap;align=center;sketch=0;rotation=-90;" vertex="1" parent="1">
          <mxGeometry x="503.25" y="572" width="111.5" height="10" as="geometry" />
        </mxCell>
        <mxCell id="mzHUonBrrAP12Gn4H00u-3" value="" style="fontColor=#0066CC;verticalAlign=top;verticalLabelPosition=bottom;labelPosition=center;align=center;html=1;outlineConnect=0;fillColor=#CCCCCC;strokeColor=#6881B3;gradientColor=none;gradientDirection=north;strokeWidth=2;shape=mxgraph.networks.video_projector;rotation=90;" vertex="1" parent="1">
          <mxGeometry x="539" y="693" width="40" height="14" as="geometry" />
        </mxCell>
        <mxCell id="mzHUonBrrAP12Gn4H00u-4" value="Automatic sliding door" style="text;html=1;align=center;verticalAlign=middle;whiteSpace=wrap;rounded=0;" vertex="1" parent="1">
          <mxGeometry x="620" y="107" width="130" height="30" as="geometry" />
        </mxCell>
        <mxCell id="mzHUonBrrAP12Gn4H00u-5" value="Access controlled physical door" style="text;html=1;align=center;verticalAlign=middle;whiteSpace=wrap;rounded=0;" vertex="1" parent="1">
          <mxGeometry x="620" y="205" width="130" height="30" as="geometry" />
        </mxCell>
        <mxCell id="mzHUonBrrAP12Gn4H00u-6" value="Authorised-limited access physical door" style="text;html=1;align=center;verticalAlign=middle;whiteSpace=wrap;rounded=0;" vertex="1" parent="1">
          <mxGeometry x="620" y="286" width="130" height="30" as="geometry" />
        </mxCell>
        <mxCell id="mzHUonBrrAP12Gn4H00u-7" value="Authorised-limited access automatic sliding door" style="text;html=1;align=center;verticalAlign=middle;whiteSpace=wrap;rounded=0;" vertex="1" parent="1">
          <mxGeometry x="620" y="383" width="130" height="30" as="geometry" />
        </mxCell>
        <mxCell id="mzHUonBrrAP12Gn4H00u-8" value="Linked security camera" style="text;html=1;align=center;verticalAlign=middle;whiteSpace=wrap;rounded=0;" vertex="1" parent="1">
          <mxGeometry x="620" y="469.5" width="130" height="30" as="geometry" />
        </mxCell>
        <mxCell id="mzHUonBrrAP12Gn4H00u-9" value="Projector screen" style="text;html=1;align=center;verticalAlign=middle;whiteSpace=wrap;rounded=0;" vertex="1" parent="1">
          <mxGeometry x="620" y="569" width="130" height="30" as="geometry" />
        </mxCell>
        <mxCell id="mzHUonBrrAP12Gn4H00u-10" value="Screen projector" style="text;html=1;align=center;verticalAlign=middle;whiteSpace=wrap;rounded=0;" vertex="1" parent="1">
          <mxGeometry x="620" y="682" width="130" height="30" as="geometry" />
        </mxCell>
        <mxCell id="mzHUonBrrAP12Gn4H00u-11" value="" style="endArrow=none;html=1;rounded=0;" edge="1" parent="1">
          <mxGeometry width="50" height="50" relative="1" as="geometry">
            <mxPoint x="-200" y="202" as="sourcePoint" />
            <mxPoint y="202" as="targetPoint" />
          </mxGeometry>
        </mxCell>
        <mxCell id="mzHUonBrrAP12Gn4H00u-13" value="" style="line;strokeWidth=4;html=1;perimeter=backbonePerimeter;points=[];outlineConnect=0;rotation=90;strokeColor=#82b366;fillColor=#d5e8d4;" vertex="1" parent="1">
          <mxGeometry x="538.25" y="30" width="39.5" height="6.25" as="geometry" />
        </mxCell>
        <mxCell id="mzHUonBrrAP12Gn4H00u-14" value="Emergency Stairs access physical door" style="text;html=1;align=center;verticalAlign=middle;whiteSpace=wrap;rounded=0;" vertex="1" parent="1">
          <mxGeometry x="620" y="18.129999999999995" width="130" height="30" as="geometry" />
        </mxCell>
        <mxCell id="mzHUonBrrAP12Gn4H00u-15" value="" style="endArrow=none;html=1;rounded=0;exitX=0.951;exitY=0.033;exitDx=0;exitDy=0;exitPerimeter=0;" edge="1" parent="1" source="vpeIHx57n76zGfDnY5xr-1" target="mzHUonBrrAP12Gn4H00u-12">
          <mxGeometry width="50" height="50" relative="1" as="geometry">
            <mxPoint y="42" as="sourcePoint" />
            <mxPoint x="1" y="620" as="targetPoint" />
          </mxGeometry>
        </mxCell>
        <mxCell id="mzHUonBrrAP12Gn4H00u-12" value="" style="line;strokeWidth=4;html=1;perimeter=backbonePerimeter;points=[];outlineConnect=0;rotation=90;strokeColor=#82b366;fillColor=#d5e8d4;" vertex="1" parent="1">
          <mxGeometry x="-21.75" y="115.86999999999999" width="39.5" height="6.25" as="geometry" />
        </mxCell>
        <mxCell id="mzHUonBrrAP12Gn4H00u-16" value="" style="shape=image;html=1;verticalAlign=top;verticalLabelPosition=bottom;labelBackgroundColor=#ffffff;imageAspect=0;aspect=fixed;image=https://cdn2.iconfinder.com/data/icons/boxicons-regular-vol-1/24/bx-circle-quarter-128.png;opacity=30;" vertex="1" parent="1">
          <mxGeometry x="518" y="5" width="90" height="90" as="geometry" />
        </mxCell>
        <mxCell id="mzHUonBrrAP12Gn4H00u-17" value="" style="shape=image;html=1;verticalAlign=top;verticalLabelPosition=bottom;labelBackgroundColor=#ffffff;imageAspect=0;aspect=fixed;image=https://cdn2.iconfinder.com/data/icons/boxicons-regular-vol-1/24/bx-circle-quarter-128.png;opacity=30;rotation=-90;" vertex="1" parent="1">
          <mxGeometry x="-50.5" y="91" width="90" height="90" as="geometry" />
        </mxCell>
        <mxCell id="mzHUonBrrAP12Gn4H00u-19" value="" style="endArrow=none;html=1;rounded=0;" edge="1" parent="1">
          <mxGeometry width="50" height="50" relative="1" as="geometry">
            <mxPoint x="160" y="1440" as="sourcePoint" />
            <mxPoint x="402" y="1440" as="targetPoint" />
          </mxGeometry>
        </mxCell>
        <mxCell id="mzHUonBrrAP12Gn4H00u-20" value="" style="endArrow=none;html=1;rounded=0;" edge="1" parent="1">
          <mxGeometry width="50" height="50" relative="1" as="geometry">
            <mxPoint x="162.5" y="1300" as="sourcePoint" />
            <mxPoint x="163" y="1440" as="targetPoint" />
          </mxGeometry>
        </mxCell>
        <mxCell id="mzHUonBrrAP12Gn4H00u-21" value="" style="shape=image;html=1;verticalAlign=top;verticalLabelPosition=bottom;labelBackgroundColor=#ffffff;imageAspect=0;aspect=fixed;image=https://cdn2.iconfinder.com/data/icons/boxicons-regular-vol-1/24/bx-circle-quarter-128.png;opacity=30;" vertex="1" parent="1">
          <mxGeometry x="122" y="1337" width="90" height="90" as="geometry" />
        </mxCell>
        <mxCell id="mzHUonBrrAP12Gn4H00u-22" value="" style="line;strokeWidth=4;html=1;perimeter=backbonePerimeter;points=[];outlineConnect=0;rotation=90;strokeColor=#000000;fillColor=#000000;" vertex="1" parent="1">
          <mxGeometry x="144.5" y="1359" width="40" height="10" as="geometry" />
        </mxCell>
      </root>
    </mxGraphModel>
  </diagram>
</mxfile>
